<svg xmlns="http://www.w3.org/2000/svg" xmlns:xlink="http://www.w3.org/1999/xlink" width="33" height="30" viewBox="0 0 33 30"><defs><path id="zic9a" d="M437 1159.65v-.86c0-2.22 3.9-4 8.72-4 .84 0 1.65.05 2.43.15v8.56c-.78.1-1.6.16-2.43.16-4.82 0-8.72-1.8-8.72-4zm0 4.47v-.86c0-.29.06-.56.18-.82.83 1.81 4.33 3.18 8.54 3.18.84 0 1.65-.06 2.43-.16v2.51c-.78.1-1.6.16-2.43.16-4.82 0-8.72-1.8-8.72-4zm11.15 6.88c0 .48.1.95.32 1.4-.87.13-1.8.2-2.75.2-4.82 0-8.72-1.8-8.72-4v-.87c0-.28.06-.56.18-.82.83 1.81 4.33 3.18 8.54 3.18.84 0 1.65-.06 2.43-.16zm18.85-19v.87c0 2.21-3.9 4-8.72 4-4.81 0-8.71-1.79-8.71-4v-.87c0-2.2 3.9-4 8.71-4 4.82 0 8.72 1.8 8.72 4zm-.18 3.65c.12.27.18.54.18.82v.87c0 2.21-3.9 4-8.72 4-4.81 0-8.71-1.79-8.71-4v-.87c0-.28.06-.55.18-.82.82 1.82 4.33 3.19 8.53 3.19 4.2 0 7.71-1.37 8.54-3.19zm0 4.47c.12.27.18.54.18.82v.87c0 2.21-3.9 4-8.72 4-4.81 0-8.71-1.79-8.71-4v-.87c0-.28.06-.55.18-.82.82 1.82 4.33 3.19 8.53 3.19 4.2 0 7.71-1.37 8.54-3.19zm0 4.72c.12.26.18.54.18.82v.87c0 2.2-3.9 4-8.72 4-4.81 0-8.71-1.8-8.71-4v-.87c0-.28.06-.56.18-.82.82 1.81 4.33 3.18 8.53 3.18 4.2 0 7.71-1.37 8.54-3.18zm0 4.47c.12.26.18.54.18.82v.87c0 2.2-3.9 4-8.72 4-4.81 0-8.71-1.8-8.71-4v-.87c0-.28.06-.56.18-.82.82 1.82 4.33 3.18 8.53 3.18 4.2 0 7.71-1.36 8.54-3.18z"/></defs><g><g transform="translate(-435 -1146)"><use xlink:href="#zic9a"/></g></g></svg>