<svg xmlns="http://www.w3.org/2000/svg" viewBox="0 0 1266.01 1953.34"><defs/><title>Asset 2</title><g id="Layer_2" data-name="Layer 2"><g id="Layer_1-2" data-name="Layer 1"><path class="cls-1" d="M610.47,6c8.32-4.35,17.89-6.78,27.3-5.79,12.07,2.48,22.88,9.68,30.83,19a71.2,71.2,0,0,1,15.8,57.5c-2.17,14.63-8.52,28.32-16.65,40.57-10.2,15.56-22.84,29.29-34.56,43.68a394.57,394.57,0,0,1-31.85-35.43c-11.67-15.1-21.24-32.63-23.28-51.88-.81-8.93-.9-18.09,1.34-26.84C583.61,29.75,594.88,14.32,610.47,6Z"/><path class="cls-1" d="M630.63,253.22c9.29-.82,19,.86,27,6a35.4,35.4,0,0,1,15,21.76c4.27,18,3.06,36.78-.56,54.75-5.82,30.16-17.57,59.17-19.51,90-4,47.85-4.83,96.23,1.77,143.9,5.14,37.18,14.95,73.88,30.95,107.9,12.6,25.87,33.58,47.85,59.49,60.6,12.6,6.09,26.33,10.18,40.35,10.91,17.27-.23,34-7.31,47.36-18.08a93.64,93.64,0,0,0,25.61-32.63c9.95-19.38,14-41.14,15.9-62.66,2.75-28.82,2.24-58.2,9.8-86.35a151.66,151.66,0,0,1,8.23-23c4.19-8.94,13-14.76,22.35-17.34a58.5,58.5,0,0,1,28.78-2.43,18.51,18.51,0,0,1,15.12,15.09c2.77,19.55-.08,39.52-5.75,58.32-5,17.18-12.33,33.59-20.56,49.46-2.58,6.38-7.31,11.5-10.33,17.64-8.07,14.73-16.59,29.45-21.32,45.67-3.06,10.63-4.41,22-2.28,32.91,1.28,7.58,3.89,15.21,9.21,20.94,6.82,7.72,16.88,11.86,26.94,13.15a63.37,63.37,0,0,0,39.41-7.7c24.46-13.4,42.28-35.86,56.9-59.09,9.11-14.63,17.71-29.66,24.41-45.57,22.26-52.34,29.35-109.73,52.12-161.88,7.18-17.72,21.91-31.79,39.09-39.82,13.53-6.28,29.48-8.58,43.81-3.64,8.36,2.91,16.74,7.81,20.78,16.05,4.85,9,3,19.95-1.18,28.86-6.87,14.52-17.82,26.61-29.1,37.85-10.42,9.62-20.45,19.71-29.15,30.94-31.22,39.54-49.89,87.82-58.77,137.11-3.49,21.14-6.94,42.33-8.2,63.75-3.75,55,1,110,.75,165,0,4.4.18,8.84-.53,13.21a97.25,97.25,0,0,1-28.13,51c-20.45,20-47.54,32.15-75.22,38.39-14.75,3.19-29.89,5-45,4.32-100.19-3.3-198.73-25.78-299-27.73a574,574,0,0,0-57.92,1.53c-51.93,3.83-103.66,10.15-155,18.59-21.82,3.88-43.8,7.12-66,8.15-36.92,1.68-74.82-1.93-109.15-16.38a167.88,167.88,0,0,1-27.45-14.61c-5.52-3.71-11.06-7.49-15.64-12.35-11.88-12.09-19.68-27.74-23.79-44.08-5.61-21.76-5.36-44.43-4.5-66.71,1.33-22.75,3.27-45.48,3.38-68.28.48-46.11-3.74-92.49-15.54-137.15-12.39-47.1-33.94-92.31-66.07-129.19-11-13.29-25-23.63-36.2-36.71-5.82-6.92-10.76-14.92-12.38-23.93-1.89-10.78.52-22.88,8.46-30.81,7.12-7.43,17.81-10,27.8-10a77.77,77.77,0,0,1,35.54,9.26c16.53,10,28.55,26,36.72,43.25s13.16,35.77,17.56,54.28c4.09,18.83,9.73,37.29,15.47,55.68,10.39,32.47,23.19,64.48,41.78,93.2,14.8,22.9,33.56,43.5,56.14,58.91,17.33,11.27,40.89,9.13,57.87-1.77,11.1-6.92,19.68-18.78,20.35-32.11.76-9-2.71-17.42-5.78-25.62-13.45-35-33.85-66.84-46.9-102-7.15-19.24-11.77-39.73-10.77-60.35.39-6.06.31-12.73,4.22-17.77,4.33-6.35,12.57-8.19,19.82-8,8.9-.63,17.71,1.68,25.9,5,7.76,3.19,14.6,9.15,17.78,17,6.08,15.28,9.38,31.52,11.41,47.79,3.46,27.34,3.68,55,8.44,82.21,3.08,16,6.91,32.38,15.65,46.37,12.95,20.87,33.32,38.88,58.21,42.89,20.21,2.61,41-2.57,58.63-12.46,28.34-16,49.3-43.41,60.38-73.77,15.41-38.36,24.22-79.2,27.22-120.39C618,471,608.12,401.31,593.71,333.35c-2.15-10.48-4.72-20.87-6.92-31.34a35.71,35.71,0,0,1,5.06-26.77C600.28,262.24,615.47,254.7,630.63,253.22Z"/><path class="cls-1" d="M333.1,1097.83c12.16-1.23,25-1.28,36.4,3.63a35.31,35.31,0,0,1,17,15.91c9.26,16.14,10.3,35.21,11.57,53.35,2.22,25.61,1.75,51.35,1.34,77-1,22-.84,44-.8,65.92-.11,28.7.84,57.51-2.63,86.06a74.17,74.17,0,0,1-8.29,24.57c-3.25,5.52-7.57,10.74-13.45,13.58-9.54,4.76-20.67,5.28-31,3.48-8.52-1.52-15.88-7.1-20.73-14.12a49.43,49.43,0,0,1-8.26-22.51c-3.23-24.25-.55-48.74-.83-73.09.06-30-.2-60.05.8-90.06C304.88,1256.63,298,1273,290.5,1289c-7.83,17.24-15.65,34.53-24.89,51.07-4.71,8.42-13.56,15-23.43,15.14-5.66.21-11.53-1.09-16-4.69-6-4.51-9.84-11.22-12.95-17.92-10.38-21.2-19.92-42.79-29.68-64.27-4.15-8.86-7.82-17.95-12.51-26.52-.57,28.59.09,57.22-1.06,85.81-.19,22.71-.75,45.4-1.28,68.1-.67,11.78-3,23.92-9.6,33.9-5,7.55-13.84,11.67-22.62,12.53a57.47,57.47,0,0,1-25.22-3.55c-7.23-2.87-12.75-8.89-16.34-15.64a66.28,66.28,0,0,1-7.56-25.26c-2.47-25.6-1.71-51.34-1.77-77,1.69-54-3.52-108.27,4.08-162,2.24-13.5,5.48-27.18,12.5-39.07,4.65-7.8,11.4-14.65,20-18,11.15-4.57,23.51-4.32,35.32-3.43,10.34,1,18.77,8.07,25.09,15.84,26,33.06,36.13,75.11,59.86,109.53,19.64-27.73,29.74-60.84,48.67-89,5.94-9.23,11.72-18.78,19.83-26.3C317,1102.63,324.73,1098.59,333.1,1097.83Z"/><path class="cls-1" d="M982.26,1173.78c8.59-3.14,18-3,26.93-1.83,9.17,1.27,18.52,4.86,24.59,12.14,6.34,7.65,8.8,17.69,9.79,27.39.65,9.07.31,18.17.29,27.26-.16,12.5.58,25,.86,37.47,8.17-2.45,16.07-6.75,21.19-13.76,11.85-16.1,19.39-34.78,26.91-53.16,3.08-7.34,5.61-15.08,10.44-21.51,4.46-6,10.56-11.19,18-13.06,10.46-2.57,21.66-3.56,32.08-.23,7.39,2.29,14.46,7,17.77,14.23,4.81,10.1,3.33,21.88.4,32.31-9.24,30.68-26.92,59.41-52.51,79.08,7.5,4.62,15.46,8.71,21.83,14.92,8.23,8.07,14.38,18,20,28a202.31,202.31,0,0,1,16.85,41.1c3.07,11.85,4.82,24.75.54,36.55-4,10.53-14.41,17.44-25.13,19.7-10.43,2.06-21.45,3-31.81.13-9.27-2.58-16.08-10.12-20.73-18.19-10.92-19.41-20.89-39.33-30.65-59.34-3.22-6.36-6.64-13.17-12.87-17.09-4.58-2.87-10.19-1.67-15.27-1.66-.17,20.4,1,41.13-4,61.13-2,7.81-4.43,15.91-9.86,22.11-9.76,11.59-26.91,15.47-41,10.61a43.19,43.19,0,0,1-23.74-19.36c-8-13.86-9.14-30.33-9.58-46-1-15.66-.63-31.35-.92-47-.17-26.67-.2-53.34.37-80,1-16.93-.24-34.65,6.59-50.61A38.28,38.28,0,0,1,982.26,1173.78Z"/><path class="cls-1" d="M449.11,1183.7c7.18-7.48,17.94-10.33,28-10.33,11.37.39,23.46,1.57,33.05,8.29,6.18,4.28,8.9,11.84,10,19,2.12,15.25,1.55,30.71.7,46-.91,24.14-4.11,48.11-6.59,72.12,20.3-27.94,35.06-59.38,53.64-88.42,10.18-14.88,26.68-26.51,45.17-27,12.7-.13,26.2,1.28,37.09,8.4,7.08,4.47,11.4,12,14.12,19.77,5.93,16,5.83,33.3,5.53,50.11q-.74,39.51-3.25,79c-.68,10-1.81,20-1.81,30.08-.12,9.61-1.73,19.79-7.93,27.5-6.3,8.7-17.33,12.18-27.63,12.83-8.15.35-16.75.4-24.24-3.25a26.32,26.32,0,0,1-13.79-15.09c-4.33-12.49-4.76-25.93-4.17-39,1.27-20.82,1.27-41.69,2.83-62.49-9.38,13.63-17.37,28.16-25.82,42.38-9.24,15.91-18.7,31.71-28.66,47.18-6.6,9.85-14.73,19.26-25.63,24.42-14.41,6.53-31.73,6.74-46.11,0a44.47,44.47,0,0,1-22.16-23.62c-2.83-6.94-4-14.43-4.44-21.86-1-24.67-2.08-49.35-1.65-74,0-21.71,2.9-43.27,3.12-65,.06-13.74.54-27.58,3.55-41C443.26,1194,444.9,1188,449.11,1183.7Z"/><path class="cls-1" d="M882.53,1177.21c9.13-.82,18.73.6,26.64,5.47,8.11,5.21,13.2,14.15,15.5,23.35,4.05,17.91,3.11,36.39,3.07,54.62-.78,41.34.42,82.69-.31,124-.63,10.69-.77,21.43-2,32.1-.91,7.83-4.18,15.68-10.34,20.82-6.6,5.73-15.43,8-24,8.61-8,.44-16.12,1.35-24-.53-8.63-1.87-16.88-6.87-21.34-14.66-5.75-9.32-6.23-20.65-6.19-31.28-.36-24.35,0-48.7-.63-73q-.09-37.9-.13-75.81c-6.93.62-14.26.59-20.56,3.91-5.81,3.26-8.2,10-10.09,16-3.48,12.66-3.27,25.92-4.15,38.93-1.18,22.53-3.34,45.15-9.08,67-3.4,12.87-7.66,25.68-14.69,37.07-6.72,11-16.25,20.62-28.17,25.85-17.36,7.77-38.48,6.75-54.8-3.11a29.75,29.75,0,0,1-13.94-26.89c0-5,2.23-9.7,4.73-13.94,6.64-11.45,16.14-21,22.49-32.59,7.4-13.22,9.67-28.51,10.64-43.42,1.54-25.51.81-51.65,8.7-76.27a82.91,82.91,0,0,1,31.67-43.22c11-8,24.2-11.94,37.42-14.24,11.26-1.7,22.7-1,34-.77,5.68.06,11.49,1,17.08-.48C860.88,1181.91,871.45,1178.23,882.53,1177.21Z"/><path class="cls-1" d="M59.13,1480.79c34.58-3.33,69.35-3.42,104.06-3.89,13-.92,26.2-.94,39,2,8.8,2.14,17.48,6.43,23.08,13.76,5.37,7.16,7.63,16.19,8.26,25,.6,10.06,0,20.58-4.55,29.78a33.31,33.31,0,0,1-12.83,14.06c-7.76,4.78-16.9,6.66-25.86,7.53-24.77,2.08-49.69.2-74.47,2.12-6.28.46-13,3-16.16,8.88-5.57,9.41-3.93,20.71-3.79,31.12,25-.54,50.35-1.19,75,4,13.39,2.89,26.55,7.44,38.35,14.47,14.51,8.88,24.85,23.51,30.46,39.4,4.46,12.38,5.61,25.59,6.81,38.61,1,16,.86,32.32-3.54,47.86-7.11,26.38-26.62,48.69-51.09,60.54a119.93,119.93,0,0,1-33.61,10.53c-20.53,3.09-41.35,2.31-62,3.24-22.47.08-45.65-.15-66.89-8.38-9.19-3.44-15.93-11.5-19.56-20.4-5.63-13.73-6.7-28.73-7.62-43.38-1.63-27.3-2-54.66-2.1-82,.57-24.68.72-49.36,1-74,.7-13.65.47-27.32.54-41,.11-10.56-.36-21.17,1.15-31.65,1.47-11.4,5.39-23,13.36-31.48C27.05,1485.77,43.81,1482.64,59.13,1480.79ZM94.37,1683c-.12,25.1-.26,50.27-2.78,75.27,10.13.33,20.45.82,30.37-1.69,8.46-2.12,16.73-5.85,23.14-11.86,11.9-12,13.32-32.78,3.51-46.45-6.59-8.63-17-13.54-27.46-15.57C112.3,1680.81,103.21,1681.48,94.37,1683Z"/><path class="cls-1" d="M706.53,1570.21c11.9,0,24.12-1.25,35.68,2.34,7.68,2.18,15.15,7,18.45,14.53a48,48,0,0,1-2,41,32.83,32.83,0,0,1-18.41,15.8c-13.57,4.5-28.31,1-42,5-7,2.17-9.93,10-10,16.79-.46,14-.31,28,.15,42,.11,20,.29,40,.2,60,0,12.78.12,26.19-5.3,38.06a30.88,30.88,0,0,1-14.9,15.15c-12,6.06-26,6.92-39.24,5.82-11.42-1-22.52-8.21-26.69-19.08-4-10.48-3.63-21.89-3.68-32.9.06-27.66,0-55.32.63-83-.2-9,.39-18.1-.35-27.1-.43-5.42-3-11.71-8.73-13.2-15.73-4-32.39,2.77-47.84-3.07-10.08-3.38-16.62-13.35-18-23.58s-2.15-21.55,2.88-31c4.19-8.14,12.4-13.34,20.94-16,14.84-4.6,30.58-4.34,45.94-5.27,21-.35,42-.32,62.95-.56Q681.83,1571.13,706.53,1570.21Z"/><path class="cls-1" d="M1051.93,1582.44a39.14,39.14,0,0,1,29.26-12.57c11.56-.47,24,1,33.44,8.34,9,7.14,12.78,18.84,14,29.9,1.48,12.12.52,24.35.77,36.53.12,9.94.17,19.9.44,29.85a38.43,38.43,0,0,0,22.29-14.83c11.94-16.76,19.5-36.05,27.22-55,3.06-7.75,6.25-15.71,12-21.94a31.81,31.81,0,0,1,18.57-10.41c12.58-2.42,26.74-2.54,37.78,4.86,6.65,4.2,10.59,11.74,11.51,19.44,1.4,10.83-1.67,21.61-5.32,31.7-9.84,27.34-26.67,52.46-49.74,70.36,9.07,4.9,18.19,10.19,25.14,18,10.15,11.84,17.9,25.57,24.24,39.77,6.18,14.39,11.91,29.42,12.5,45.24.33,9.34-1.54,19.51-8.18,26.53-7.35,7.87-18.28,11.11-28.72,12-9.36.37-19.42,1.23-27.87-3.62-7.17-3.58-12.19-10.09-15.9-17-11.75-20.11-21.41-41.32-32.17-62-2-3.83-3.9-7.91-7.26-10.76a20.89,20.89,0,0,0-17.83-4.47c-1.61.82-1,2.78-1.18,4.27.08,22.88,1.09,46.59-7.33,68.32a34.54,34.54,0,0,1-16.16,18.74c-13.54,7.55-31.39,5.79-43.49-3.77-9.41-7.08-15.37-17.89-17.82-29.28-4.87-21.68-3-44.08-4.09-66.1-.25-24.64-.36-49.29,0-73.93.9-16.31.13-32.7,2.13-48.93C1041.65,1601.31,1044.53,1590.37,1051.93,1582.44Z"/><path class="cls-1" d="M292.22,1575.91c10.27-4.26,21.63-4.49,32.56-3.73,8,.83,16.36,3.87,21.31,10.52,3.07,4.49,4.45,9.85,6.16,15,11.65,37.73,8.9,78.77,24.45,115.46,4.2,10.39,8.52,22.15,19.1,27.67,3.27-3.62,6.74-7.36,8.09-12.18,12.48-41.5,11.29-85.46,20.7-127.56,2-7.36,4.39-15.52,11-20.11,8.26-5.91,18.77-6.83,28.6-7.42,10.68-.28,21.64,1.26,31.3,6,3.85,1.81,7.56,4.31,9.88,8,3.52,5.39,5,11.81,5.92,18.11,2.56,18.34.22,36.88-2.29,55.09-3.47,22.46-8.17,44.69-13.07,66.87-3.2,14.13-6.3,28.3-10.48,42.18-8.52,29.15-19.69,57.45-31.89,85.24-11,25.19-25.45,49.39-45.69,68.27-8.82,8.16-18.47,15.76-29.68,20.35-17,7.27-35.6,10.17-54,9.63a30.8,30.8,0,0,1-20-8.62c-9.39-8.9-14.66-21.4-16.56-34-1.52-7.9-1-16.44,2.91-23.58,3.9-7.36,11.15-12.47,19-14.82,16.15-5.06,33.05-10.62,45.39-22.78,7.49-7,11.86-16.45,15.37-25.88-16.37-2.88-33.14-8.78-44.75-21.2-20.48-21.29-32.48-49.08-40.92-77-8.06-26.85-15.92-53.91-19.5-81.78-1.07-8.91-2.29-17.95-.91-26.89a61.33,61.33,0,0,1,12.11-28.86A36.06,36.06,0,0,1,292.22,1575.91Z"/><path class="cls-1" d="M802.32,1574.76c8.16-3.35,17.16-3.13,25.8-2.42,8.83.81,17.9,3,25.07,8.48,5.42,4.25,7.76,11.19,8.83,17.76,2.79,18.24,1.25,36.74.37,55.07-1.23,21.26-4,42.38-6.1,63.56,15-20.79,27.05-43.44,39.84-65.58,5.8-9.75,10.87-20.05,18.34-28.68,7.74-9.12,17.88-16.74,29.69-19.47,12.86-2.89,26.46-1.74,39,2.21,10.28,3.24,18.39,11.76,22.28,21.69,4.48,11.89,6.3,24.65,6.41,37.33.31,25-1.18,50-2.14,75.06-.51,16-2.58,31.9-2.91,47.91-.17,10-1.42,20.68-7.84,28.76-6.25,8.75-17.31,12.52-27.69,13-7.51.11-15.38.65-22.45-2.37-6.73-2.65-12.58-7.87-15.19-14.69-5.34-13.52-5.08-28.35-4.61-42.64,1.43-20,1.11-40,2.81-60-5.74,7.67-10.28,16.16-15.3,24.31-10.56,17.77-20.68,35.81-31.74,53.29-6,9.76-12,19.71-20.49,27.53a48.4,48.4,0,0,1-27.19,13c-17.19,2.69-36.44-2.73-47.29-16.92-9.78-12.09-11.08-28.31-11.22-43.24-1.06-16.67-1-33.38-1.57-50.06.43-16.68.37-33.4,2.06-50,2.46-25.4-.67-51.54,6.7-76.32C788,1583.39,794.8,1577.59,802.32,1574.76Z"/></g></g></svg>