<svg xmlns="http://www.w3.org/2000/svg" width="22" height="27" viewBox="0 0 22 27">
  <metadata><?xpacket begin="﻿" id="W5M0MpCehiHzreSzNTczkc9d"?>
<x:xmpmeta xmlns:x="adobe:ns:meta/" x:xmptk="Adobe XMP Core 5.6-c142 79.160924, 2017/07/13-01:06:39        ">
   <rdf:RDF xmlns:rdf="http://www.w3.org/1999/02/22-rdf-syntax-ns#">
      <rdf:Description rdf:about=""/>
   </rdf:RDF>
</x:xmpmeta>
                                                                                                    
                                                                                                    
                                                                                                    
                                                                                                    
                                                                                                    
                                                                                                    
                                                                                                    
                                                                                                    
                                                                                                    
                                                                                                    
                                                                                                    
                                                                                                    
                                                                                                    
                                                                                                    
                                                                                                    
                                                                                                    
                                                                                                    
                                                                                                    
                                                                                                    
                                                                                                    
                           
<?xpacket end="w"?></metadata>
<defs>
    
  </defs>
  <path id="Login" class="cls-1" d="M1313.39,89.106a8.254,8.254,0,0,0,2.51-5.948,7.9,7.9,0,1,0-15.8,0,8.255,8.255,0,0,0,2.51,5.948c-2.38,2.112-5.61,5.01-5.61,11.7V102h22v-1.2C1319,94.115,1315.77,91.217,1313.39,89.106Zm-10.98-5.948a5.593,5.593,0,1,1,5.59,5.767A5.688,5.688,0,0,1,1302.41,83.158Zm-3.05,16.45c0.33-4.763,2.69-6.857,4.79-8.72l0.18-.162a8.918,8.918,0,0,0,7.34,0l0.18,0.162c2.1,1.864,4.46,3.957,4.79,8.72h-17.28Z" transform="translate(-1297 -75)"/>
</svg>
