<svg xmlns="http://www.w3.org/2000/svg" xmlns:xlink="http://www.w3.org/1999/xlink" width="33" height="33" viewBox="0 0 33 33"><defs><path id="gwy1a" d="M467.64 1438.22v2.05c0 1.5-1.23 2.73-2.73 2.73h-23.18a2.73 2.73 0 0 1-2.73-2.73v-16.38c0-1.5 1.22-2.73 2.73-2.73h2.35l13.43-7.83a2.68 2.68 0 0 1 3.7 1l3.92 6.85a2.72 2.72 0 0 1 2.5 2.7v2.06c0 .37-.3.68-.68.68h-4.77a5.46 5.46 0 0 0 0 10.92h4.77c.38 0 .69.3.69.68zm-10.04-17.06h5.94l-1.48-2.6zm-8.11 0l10.54-6.15a1.34 1.34 0 0 0-1.84-.5l-11.4 6.65zm19.51 8.87v4.1c0 1.13-.92 2.04-2.05 2.04h-4.77a4.1 4.1 0 0 1 0-8.19h4.77c1.13 0 2.05.92 2.05 2.05zm-5.45 2.05a1.37 1.37 0 1 0-2.74 0 1.37 1.37 0 0 0 2.74 0z"/></defs><g><g transform="translate(-437 -1411)"><use xlink:href="#gwy1a"/></g></g></svg>