<?xml version="1.0" encoding="iso-8859-1"?>
<!-- Generator: Adobe Illustrator 19.0.0, SVG Export Plug-In . SVG Version: 6.00 Build 0)  -->
<svg version="1.1" id="Capa_1" xmlns="http://www.w3.org/2000/svg" xmlns:xlink="http://www.w3.org/1999/xlink" x="0px" y="0px"
	 viewBox="0 0 512 512" style="enable-background:new 0 0 512 512;" xml:space="preserve">
<circle style="fill:#F5F5FF;" cx="256" cy="256" r="256"/>
<circle style="fill:#E6E6FF;" cx="256" cy="256" r="202.667"/>
<circle style="fill:#D7D7FF;" cx="256" cy="256" r="149.333"/>
<path style="fill:#F0F0FF;" d="M149.333,192v224c0,11.733,9.6,21.333,21.333,21.333h170.667c11.733,0,21.333-9.6,21.333-21.333V192
	c0-23.467-19.2-42.667-42.667-42.667v-32h10.667c5.867,0,10.667-4.8,10.667-10.667V85.333c0-5.867-4.8-10.667-10.667-10.667H181.333
	c-5.867,0-10.667,4.8-10.667,10.667v21.333c0,5.867,4.8,10.667,10.667,10.667H192v32C168.533,149.333,149.333,168.533,149.333,192z"
	/>
<linearGradient id="SVGID_1_" gradientUnits="userSpaceOnUse" x1="8.1875" y1="604.9375" x2="8.1875" y2="612.9375" gradientTransform="matrix(5.3333 0 0 -5.3333 212.3333 3343.6667)">
	<stop  offset="0" style="stop-color:#60A8FF"/>
	<stop  offset="1" style="stop-color:#C143FF"/>
</linearGradient>
<path style="fill:url(#SVGID_1_);" d="M330.667,117.333H181.333c-5.867,0-10.667-4.8-10.667-10.667V85.333
	c0-5.867,4.8-10.667,10.667-10.667h149.333c5.867,0,10.667,4.8,10.667,10.667v21.333
	C341.333,112.533,336.533,117.333,330.667,117.333z"/>
<g>
	<path style="fill:#57328F;" d="M144,192v224c0,14.933,11.733,26.667,26.667,26.667h170.667C356.267,442.667,368,430.933,368,416
		V192c0-24.533-18.667-44.8-42.667-47.467v-21.867h5.333c9.067,0,16-6.933,16-16V85.333c0-9.067-6.933-16-16-16H181.333
		c-9.067,0-16,6.933-16,16v21.333c0,9.067,6.933,16,16,16h5.333v21.867C162.667,147.2,144,167.467,144,192z M357.333,416
		c0,9.067-6.933,16-16,16H170.667c-9.067,0-16-6.933-16-16V217.6l17.067-4.267c13.333-3.2,27.2-3.2,40,0
		c14.933,3.733,30.4,3.733,45.333,0c13.333-3.2,27.2-3.2,40,0c14.933,3.733,30.4,3.733,45.333,0l14.933-3.733V416z M181.333,112
		c-3.2,0-5.333-2.133-5.333-5.333v-5.333h37.333c3.2,0,5.333-2.133,5.333-5.333c0-3.2-2.133-5.333-5.333-5.333H176v-5.333
		c0-3.2,2.133-5.333,5.333-5.333h149.333c3.2,0,5.333,2.133,5.333,5.333v5.333h-80c-3.2,0-5.333,2.133-5.333,5.333
		c0,3.2,2.133,5.333,5.333,5.333h80v5.333c0,3.2-2.133,5.333-5.333,5.333H320H192H181.333z M192,154.667
		c3.2,0,5.333-2.133,5.333-5.333v-26.667h117.333v26.667c0,3.2,2.133,5.333,5.333,5.333c20.8,0,37.333,16.533,37.333,37.333v6.4
		l-17.067,4.267c-13.333,3.2-27.2,3.2-40,0c-14.933-3.733-30.4-3.733-45.333,0c-13.333,3.2-27.2,3.2-40,0
		c-14.933-3.733-30.4-3.733-45.333,0l-14.933,3.733V192C154.667,171.2,171.2,154.667,192,154.667z"/>
	<path style="fill:#57328F;" d="M181.333,240c-3.2,0-5.333,2.133-5.333,5.333v149.333c0,3.2,2.133,5.333,5.333,5.333
		c3.2,0,5.333-2.133,5.333-5.333V245.333C186.667,242.133,184.533,240,181.333,240z"/>
	<circle style="fill:#57328F;" cx="325.333" cy="272" r="5.333"/>
	<circle style="fill:#57328F;" cx="304" cy="325.333" r="5.333"/>
	<circle style="fill:#57328F;" cx="314.667" cy="357.333" r="5.333"/>
	<circle style="fill:#57328F;" cx="282.667" cy="410.667" r="5.333"/>
	<circle style="fill:#57328F;" cx="293.333" cy="389.333" r="5.333"/>
</g>
<g>
	<circle style="fill:#FFFFFF;" cx="154.667" cy="48" r="16"/>
	<circle style="fill:#FFFFFF;" cx="362.667" cy="42.667" r="10.667"/>
	<circle style="fill:#FFFFFF;" cx="85.333" cy="138.667" r="10.667"/>
	<circle style="fill:#FFFFFF;" cx="400" cy="144" r="16"/>
	<circle style="fill:#FFFFFF;" cx="442.667" cy="240" r="5.333"/>
	<circle style="fill:#FFFFFF;" cx="32" cy="298.667" r="10.667"/>
	<circle style="fill:#FFFFFF;" cx="314.667" cy="464" r="5.333"/>
	<circle style="fill:#FFFFFF;" cx="133.333" cy="453.333" r="5.333"/>
</g>
<g>
</g>
<g>
</g>
<g>
</g>
<g>
</g>
<g>
</g>
<g>
</g>
<g>
</g>
<g>
</g>
<g>
</g>
<g>
</g>
<g>
</g>
<g>
</g>
<g>
</g>
<g>
</g>
<g>
</g>
</svg>
